<svg xmlns="http://www.w3.org/2000/svg" width="31" height="31" viewBox="0 0 31 31"><g><g opacity=".7"><g opacity=".7"><path d="M22.587 12.548c0 4.704-3.578 10.13-10.122 10.13-2.01 0-3.879-.59-5.453-1.6a7.135 7.135 0 0 0 5.267-1.475 3.562 3.562 0 0 1-3.324-2.472 3.538 3.538 0 0 0 1.607-.061 3.56 3.56 0 0 1-2.854-3.49v-.046c.48.267 1.028.428 1.612.446a3.557 3.557 0 0 1-1.583-2.964c0-.652.176-1.263.481-1.79a10.098 10.098 0 0 0 7.334 3.72A3.56 3.56 0 0 1 21.614 9.7a7.133 7.133 0 0 0 2.26-.863 3.574 3.574 0 0 1-1.565 1.969 7.092 7.092 0 0 0 2.043-.561 7.233 7.233 0 0 1-1.775 1.844c.007.152.01.306.01.46zM28.764 0H2.236C1 0 0 1 0 2.236v26.528C0 30 1 31 2.236 31h26.528C30 31 31 30 31 28.764V2.236C31 1 30 0 28.764 0z"/></g></g></g></svg>