<svg xmlns="http://www.w3.org/2000/svg" width="31" height="31" viewBox="0 0 31 31"><g><g opacity=".7"><g opacity=".7"><path d="M24.584 23.409h-3.771v-6.07c0-1.525-.546-2.566-1.91-2.566-1.043 0-1.663.702-1.936 1.38-.1.242-.124.58-.124.92v6.336h-3.77s.049-10.282 0-11.346h3.77v1.606c.501-.773 1.398-1.872 3.399-1.872 2.481 0 4.342 1.621 4.342 5.106zM9.1 10.514h-.025c-1.265 0-2.084-.872-2.084-1.96 0-1.114.844-1.96 2.134-1.96s2.084.846 2.108 1.96c0 1.088-.818 1.96-2.133 1.96zm1.895 12.895H7.214V12.063h3.781zM28.736 0H2.234C1 0 0 1 0 2.234v26.502c0 1.234 1 2.234 2.234 2.234h26.502c1.234 0 2.234-1 2.234-2.234V2.234C30.97 1 29.97 0 28.736 0z"/></g></g></g></svg>